<svg width="83" height="96" viewBox="0 0 83 96" fill="none" xmlns="http://www.w3.org/2000/svg">
<path d="M79.4753 58.2796H78.3834V46.5311C78.3834 43.5628 76.1998 41.2138 73.5303 41.2138H73.2874H72.8024V39.4824C72.8024 36.5141 70.6187 34.165 67.9493 34.165H4.85312C2.18366 34.165 0 36.515 0 39.4824V46.5321V79.4284V90.6826C0 93.6509 2.18366 96 4.85312 96H73.5309C76.2003 96 78.384 93.65 78.384 90.6826V79.1817L79.475 79.18C81.4166 79.18 82.9934 77.572 82.9934 75.4696V61.9898C83.1153 59.8875 81.5376 58.2795 79.475 58.2795L79.4753 58.2796ZM3.39586 39.4815C3.39586 38.6154 4.00273 37.9977 4.73063 37.9977H67.8268C68.5547 37.9977 69.1616 38.6162 69.1616 39.4815V41.2128H4.73067C4.24568 41.2128 3.75986 41.3362 3.3959 41.4604L3.39586 39.4815ZM74.8644 90.681C74.8644 91.5471 74.2575 92.1648 73.5296 92.1648H4.85188C4.12398 92.1648 3.51711 91.5463 3.51711 90.681V46.5307C3.51711 45.6646 4.12398 45.0469 4.85188 45.0469H73.5296C74.2575 45.0469 74.8644 45.6654 74.8644 46.5307V58.2792H57.9983L48.655 68.6672L57.9983 79.0553H74.8644V90.681ZM79.4755 75.5932H59.5759L53.3879 68.7911L59.4548 61.989L74.7433 62.1124H79.3535L79.4755 75.5932Z" fill="#818A97"/>
<path d="M65.3999 68.7916C65.3999 70.3625 64.1506 71.6367 62.6093 71.6367C61.068 71.6367 59.8179 70.3625 59.8179 68.7916C59.8179 67.2206 61.068 65.9474 62.6093 65.9474C64.1506 65.9474 65.3999 67.2207 65.3999 68.7916Z" fill="#818A97"/>
<path d="M42.467 10.0482C42.588 10.4191 42.8309 10.6667 43.1949 10.6667H48.8978V30.3301C48.8978 31.1962 49.5047 31.8139 50.3536 31.8139H55.8136C56.6634 31.8139 57.2695 31.1953 57.2695 30.3301V10.6667H62.9724C63.3363 10.6667 63.5792 10.4191 63.7003 10.0482C63.8213 9.67725 63.7003 9.30631 63.4574 9.05872L54.5999 0.649584C53.7501 -0.216528 52.4162 -0.216528 51.5664 0.649584L42.7089 9.05872C42.4668 9.30631 42.4668 9.67725 42.4668 10.0482H42.467Z" fill="#818A97"/>
</svg>
