<svg width="83" height="96" viewBox="0 0 83 96" fill="none" xmlns="http://www.w3.org/2000/svg">
<path d="M79.4753 59.399H78.3834V47.9991C78.3834 45.1189 76.1998 42.8396 73.5303 42.8396H73.2874H72.8024V41.1596C72.8024 38.2794 70.6187 36 67.9493 36H4.85312C2.18366 36 0 38.2802 0 41.1596V48V79.9202V90.8404C0 93.7206 2.18366 96 4.85312 96H73.5309C76.2003 96 78.384 93.7198 78.384 90.8404V79.6808L79.475 79.6791C81.4166 79.6791 82.9934 78.1189 82.9934 76.0789V62.9991C83.1153 60.9592 81.5376 59.3988 79.475 59.3988L79.4753 59.399ZM3.39586 41.1587C3.39586 40.3183 4.00273 39.7189 4.73063 39.7189H67.8268C68.5547 39.7189 69.1616 40.3191 69.1616 41.1587V42.8387H4.73067C4.24568 42.8387 3.75986 42.9584 3.3959 43.0789L3.39586 41.1587ZM74.8644 90.8389C74.8644 91.6793 74.2575 92.2786 73.5296 92.2786H4.85188C4.12398 92.2786 3.51711 91.6784 3.51711 90.8389V47.9987C3.51711 47.1583 4.12398 46.559 4.85188 46.559H73.5296C74.2575 46.559 74.8644 47.1591 74.8644 47.9987V59.3985H57.9983L48.655 69.4784L57.9983 79.5582H74.8644V90.8389ZM79.4755 76.1988H59.5759L53.3879 69.5986L59.4548 62.9983L74.7433 63.118H79.3535L79.4755 76.1988Z" fill="#818A97"/>
<path d="M65 69.4996C65 70.8802 63.881 72 62.5004 72C61.1198 72 60 70.8802 60 69.4996C60 68.119 61.1198 67 62.5004 67C63.881 67 65 68.119 65 69.4996Z" fill="#818A97"/>
<path d="M62.9288 21.2082C62.9288 20.8468 62.5708 20.7266 62.332 20.7266H56.7236V1.44577C56.7236 0.601845 56.1268 0 55.292 0H49.8025C48.9668 0 48.3709 0.602684 48.3709 1.44577V20.7266H42.7625C42.4046 20.7266 42.1657 20.9678 42.0467 21.3293C41.9277 21.6907 42.0467 22.0522 42.2856 22.2934L50.9962 30.3671C51.8319 31.211 53.1436 31.211 53.9793 30.3671L62.69 22.1733C63.0479 21.9321 63.0479 21.5706 62.9289 21.2084L62.9288 21.2082Z" fill="#818A97"/>
</svg>
