<svg width="636" height="564" viewBox="0 0 636 564" fill="none" xmlns="http://www.w3.org/2000/svg">
<path d="M44.604 99.8L43.6594 98.6C58.6673 88.6 76.6139 77.8 95.7149 67.4C111.143 58.9 126.255 51.1 140.529 44.4L141.263 45.7C126.99 52.4 111.982 60.1 96.5545 68.6C77.4535 79.1 59.5069 89.9 44.604 99.8Z" fill="black"/>
<path d="M431.871 409.9L340.879 243L104.321 267.1L104.111 265.6L341.824 241.3L433.341 409.2L431.871 409.9Z" fill="black"/>
<path d="M303.832 358.1L302.362 357.7L340.669 241.8L340.774 241.7L555.608 2.29999L556.867 3.29999L342.034 242.5L303.832 358.1Z" fill="black"/>
<path d="M491.903 260.1L340.774 242.8L340.669 242.4L239.917 13.3L241.386 12.7L341.929 241.5L492.113 258.6L491.903 260.1Z" fill="black"/>
<path d="M341.509 242.9H341.194L191.43 221.7L191.745 220.2L341.194 241.4L581.006 93.1L581.951 94.4L341.509 242.9Z" fill="black"/>
<path d="M512.998 167C537.69 167 557.707 147.927 557.707 124.4C557.707 100.873 537.69 81.8 512.998 81.8C488.306 81.8 468.289 100.873 468.289 124.4C468.289 147.927 488.306 167 512.998 167Z" fill="#D003A3"/>
<path d="M634.321 562.4H18.2614V560.9H271.087L270.667 559.9C277.384 557.7 283.996 552.8 290.713 544.8C292.182 543.1 293.547 541.3 294.911 539.6C300.368 532.9 305.931 525.9 313.697 521.6C323.877 515.9 336.051 515.6 347.806 515.3C356.097 515.1 364.703 514.9 372.574 512.7C393.774 507 408.152 488.5 420.012 471.6C423.79 466.3 427.463 460.8 431.137 455.5C447.719 431.2 464.931 406.1 486.551 385.2C516.671 355.9 551.935 339.7 585.729 339.5C613.016 339.4 627.499 350.1 633.691 356.5L633.901 356.7V357L634.321 562.4ZM272.347 560.9H632.642L632.432 357.2C626.344 351 612.386 340.9 586.463 340.9C586.253 340.9 586.044 340.9 585.834 340.9C552.459 341.1 517.616 357.2 487.705 386.2C466.4 407 449.188 432 432.606 456.3C428.933 461.6 425.154 467.1 421.481 472.5C409.517 489.6 394.929 508.4 373.204 514.2C365.123 516.4 356.412 516.6 348.016 516.8C335.947 517.1 324.612 517.4 314.747 522.9C307.19 527.1 301.733 533.9 296.38 540.5C295.016 542.2 293.547 544 292.077 545.7C285.465 553.5 279.063 558.5 272.347 560.9Z" fill="black"/>
<path d="M224.877 460.56L223.411 461.105L260.082 550.632L261.549 550.087L224.877 460.56Z" fill="black"/>
<path d="M137.771 486.741L136.229 487.041L148.837 545.927L150.38 545.627L137.771 486.741Z" fill="black"/>
<path d="M225.014 460.9L223.44 460.8L226.483 421.9C227.533 407.6 227.848 392.9 218.192 383.4C210.846 376.2 199.721 374.2 189.016 372.8C175.057 371 160.994 369.6 146.931 368.7C131.503 367.7 121.848 370.8 118.279 378C114.501 385.6 119.644 395 126.57 399.4C134.127 404.2 143.782 405.1 152.283 405.9L153.018 406V406.7C153.123 422.2 167.081 434 182.299 444.5L181.354 445.7C166.137 435.1 151.968 423.2 151.444 407.4C142.943 406.6 133.392 405.5 125.731 400.7C118.069 395.9 112.612 385.8 116.81 377.4C120.693 369.6 130.873 366.2 147.036 367.3C161.099 368.2 175.267 369.6 189.226 371.4C200.246 372.9 211.685 374.9 219.347 382.4C229.422 392.3 229.212 407.4 228.057 422L225.014 460.9Z" fill="black"/>
<path d="M201.295 372.9L199.721 372.5C204.234 355 208.747 337.5 213.259 320C214.939 313.6 216.723 306.4 215.883 299.4C214.939 291.9 210.426 285.7 204.444 283.5C196.677 280.7 187.756 285 182.929 290.8C177.891 296.9 175.687 304.7 173.693 312.9C169.285 331.4 165.717 350.3 163.093 369.1L161.519 368.9C164.143 350.1 167.816 331.1 172.224 312.6C174.218 304.3 176.422 296.3 181.669 289.9C188.806 281.3 198.776 279.8 204.968 282.1C211.475 284.4 216.408 291.2 217.457 299.2C218.402 306.5 216.513 313.8 214.834 320.3C210.216 337.9 205.808 355.4 201.295 372.9Z" fill="black"/>
<path d="M122.792 371.6C119.434 353.3 117.125 336.3 115.446 316.5C114.711 308 114.291 299.7 117.335 292.2C121.428 282 130.453 277.7 137.17 278C144.097 278.4 150.919 283.3 154.487 290.7C157.636 297.3 158.16 304.9 158.685 311.6C159.315 320.6 160.154 330.7 160.889 340.4C161.729 350 162.463 360 163.093 368.9L161.519 369C160.889 360.1 160.05 350.1 159.315 340.5C158.475 330.8 157.741 320.7 157.111 311.6C156.691 305 156.166 297.6 153.123 291.3C149.869 284.4 143.572 279.8 137.17 279.4C128.774 279 121.638 285.7 118.909 292.6C116.075 299.8 116.39 307.9 117.125 316.3C118.804 336 121.113 352.9 124.471 371.2L122.792 371.6Z" fill="black"/>
<path d="M123.317 438.3C121.218 438.3 118.909 437.9 116.81 436.9C112.402 435 109.044 431.7 105.685 428.1C100.438 422.4 94.0357 414.7 90.5723 405.5C87.1089 396.1 87.4238 386.5 91.5168 379C96.5545 369.8 107.364 366.5 123.422 369.1L123.107 370.6C107.784 368.1 97.499 371.2 92.7762 379.7C88.8931 386.8 88.5782 396 91.9366 405C95.2951 414 101.592 421.5 106.735 427.1C109.883 430.5 113.137 433.7 117.335 435.5C121.848 437.4 126.78 437.1 129.929 434.6C132.343 432.6 133.707 429.4 134.232 424.5C134.861 418.4 133.077 409.1 131.083 402.9L132.552 402.4C134.547 408.5 136.436 418 135.806 424.6C135.491 427.9 134.547 432.7 130.978 435.7C128.984 437.5 126.255 438.3 123.317 438.3Z" fill="black"/>
<path d="M106.735 470.9C103.481 470.9 100.018 470 96.8693 468.2C92.5664 465.6 88.8931 462.4 86.0594 458.5C81.9664 453.4 78.503 447.7 75.8792 441.8C72.8357 435.2 71.7862 429.8 72.6258 424.9C74.2 415.5 82.3862 408.6 90.6773 402.4L91.6218 403.6C83.5406 409.6 75.5644 416.2 74.2 425.1C73.4654 429.7 74.5149 434.8 77.3485 441.1C79.9723 447 83.3307 452.5 87.4238 457.5C90.2575 461.3 93.7208 464.4 97.8139 466.8C102.117 469.2 107.154 469.9 111.248 468.6C117.859 466.6 121.533 459.8 122.372 454C123.212 447.6 122.267 443.9 120.483 437.4L121.953 437C123.737 443.5 124.786 447.5 123.842 454.1C123.002 460.4 118.909 467.8 111.667 470C110.093 470.7 108.414 470.9 106.735 470.9Z" fill="black"/>
<path d="M137.59 488.5C131.503 488.5 125.731 486.9 120.483 483.8C114.921 480.4 109.988 476.3 105.79 471.4L107.05 470.5C111.143 475.3 115.97 479.3 121.323 482.6C126.78 485.9 133.077 487.4 139.479 487L139.584 488.5C138.954 488.5 138.325 488.5 137.59 488.5Z" fill="black"/>
<path d="M562.954 279.4C601.847 279.4 633.376 249.358 633.376 212.3C633.376 175.242 601.847 145.2 562.954 145.2C524.062 145.2 492.533 175.242 492.533 212.3C492.533 249.358 524.062 279.4 562.954 279.4Z" fill="white"/>
<path d="M562.954 280.1C523.703 280.1 491.693 249.6 491.693 212.2C491.693 174.8 523.703 144.3 562.954 144.3C602.206 144.3 634.216 174.8 634.216 212.2C634.216 249.6 602.206 280.1 562.954 280.1ZM562.954 145.9C524.543 145.9 493.267 175.7 493.267 212.3C493.267 248.9 524.543 278.7 562.954 278.7C601.366 278.7 632.642 248.9 632.642 212.3C632.642 175.7 601.366 145.9 562.954 145.9Z" fill="black"/>
<path d="M515.412 174.8C518.56 175.7 521.814 175.4 525.067 175.3C530.63 175.1 536.192 175.6 541.649 176.8C543.749 177.1 545.743 177.9 547.422 179.2C549.101 180.5 549.836 182.6 549.101 184.6C548.156 186.7 545.323 188.4 546.477 190.4C546.897 191 547.422 191.4 548.052 191.7C550.99 193.3 553.614 195.4 555.608 198.1C557.602 200.8 558.127 204.2 557.077 207.3C555.713 210.5 552.25 212.5 548.891 213.9C544.798 215.6 540.495 216.9 536.087 217.7C533.463 218 530.945 218.6 528.426 219.4C526.012 220.4 523.808 222.3 523.283 224.7C522.758 227.1 524.543 230.1 527.271 230.2C528.741 230.3 530.21 229.5 531.679 229.3C536.087 228.7 539.236 233.1 543.224 234.9C545.952 236.1 549.101 236.2 551.935 237.3C554.768 238.4 557.392 241 556.657 243.7C555.818 246.6 551.83 247.6 550.255 250.2C549.206 251.8 549.101 253.9 547.632 255C546.582 255.8 545.008 255.8 543.749 256.2C540.6 257.1 538.606 259.9 537.556 262.8C536.507 265.7 536.402 268.8 535.877 271.9C535.248 275.7 524.648 268.8 522.758 267.3C520.45 265.6 517.406 263.8 516.042 261.3C514.677 258.8 515.202 255.6 513.943 253C512.893 250.7 510.689 249.1 509.43 246.9C508.8 245.7 508.38 244.4 507.75 243.1C507.016 241.6 505.861 240.3 505.127 238.9C504.287 237.4 504.182 235.7 505.022 234.2C507.121 231.3 512.683 233 514.992 230.2C516.252 228.8 516.042 226.6 516.881 224.9C517.511 223.7 518.77 222.5 518.56 221.2C518.141 219.2 515.307 219.1 513.208 219.1C510.899 219.1 508.59 218.6 506.386 217.6C505.756 217.4 505.232 216.9 505.022 216.4C504.917 215.7 505.127 215.1 505.337 214.5C505.861 212.4 503.972 210.4 501.873 209.4C499.774 208.4 497.465 208 495.786 206.5C493.792 204.6 492.743 201.9 493.162 199.2C493.582 196.5 494.422 194 495.681 191.6C497.99 186.3 500.614 181.2 503.657 176.2C504.602 174.8 507.016 170.1 509.01 170.4C509.745 170.5 510.794 172.5 511.424 173C512.788 173.8 514.048 174.4 515.412 174.8Z" fill="black"/>
<path d="M628.863 189.3C627.814 185.9 626.03 182.8 624.246 179.4C622.356 175.8 620.257 172.4 617.844 169.2C616.479 167.3 615.01 165.5 613.331 163.9C611.232 162.1 609.028 160.5 606.614 159.1L599.057 154.4C597.063 153.1 594.964 151.8 592.76 150.7C587.303 148 581.111 146.9 575.024 145.8C568.727 145.8 562.43 145 556.028 145.1C554.873 145.1 553.719 145.2 552.669 145.5C551.095 146 549.941 145.4 548.366 145.7C547.212 146.2 546.162 146.9 545.218 147.7C547.422 148.3 549.101 150.2 549.416 152.3C549.626 153.3 549.416 154.4 549.521 155.5C549.836 158 552.04 160 554.453 161.3C556.867 162.6 559.386 163.5 561.485 165C562.115 165.4 562.64 166 562.954 166.6C563.374 167.6 562.85 168.8 562.954 170C563.269 172.6 566.418 173.7 569.042 174.4L575.024 175.9C576.283 179.8 572.715 184.4 575.024 187.8C575.654 188.8 576.808 189.6 577.018 190.8C577.333 192.5 575.653 193.9 574.919 195.5C574.079 197.2 574.289 199.3 575.444 200.9C577.543 203.5 579.432 202.6 582.16 202.3C585.519 201.9 589.507 203 592.655 203.9C593.6 204.2 594.649 204.7 594.649 205.6C594.649 206 594.44 206.5 594.125 206.8C593.285 208 592.236 209.2 591.186 210.2C591.921 211.7 594.44 211.1 595.594 212.2C596.014 212.7 596.329 213.2 596.644 213.8C598.428 216.3 603.046 214.5 605.564 216.4C606.404 217.1 606.929 218 607.349 218.9L610.917 226.3C611.232 226.8 611.337 227.3 611.232 227.9C611.127 228.2 610.917 228.5 610.602 228.7C606.614 232.4 599.687 233.5 597.798 238.5C597.693 238.8 597.588 239.1 597.693 239.3C597.798 239.7 598.323 239.9 598.743 240.2C601.576 242.2 598.323 247.5 601.156 249.5C602.626 250.5 604.725 249.8 606.509 250.2C610.077 251.1 610.182 255.3 612.596 257.3C615.01 259.3 617.529 255.4 619.313 253.4C620.677 251.8 621.727 250 622.566 248.1C624.665 243.7 627.919 239.9 629.388 235.1C630.228 232.4 630.438 229.6 631.487 227C632.327 224.9 633.586 222.6 632.851 220.4C632.117 220.3 631.802 221.2 631.382 221.8C630.543 223 629.178 223.8 627.604 224C624.036 224.6 620.362 223.9 617.424 222C612.911 218.8 618.473 215.5 617.739 211.1C617.424 209.4 616.374 207.8 615.745 206.2C615.115 204.6 615.22 202.4 616.689 201.3C617.844 200.7 618.998 200.5 620.257 200.5C622.986 200.2 625.61 199.5 628.129 198.4C629.388 198.2 630.228 197 629.913 195.9C629.913 195.8 629.913 195.7 629.808 195.6L629.703 193.4C629.598 192.1 629.283 190.7 628.863 189.3Z" fill="black"/>
<path d="M288.299 526.7H120.063V561.8H288.299V526.7Z" fill="white"/>
<path d="M289.034 562.5H119.224V526H289.034V562.5ZM120.798 561H287.459V527.4H120.798V561Z" fill="black"/>
<path d="M100.438 137.2C129.998 137.2 153.962 114.367 153.962 86.2C153.962 58.0335 129.998 35.2 100.438 35.2C70.8767 35.2 46.9128 58.0335 46.9128 86.2C46.9128 114.367 70.8767 137.2 100.438 137.2Z" fill="#D003A3"/>
<path d="M58.9821 161.4L57.4079 161C61.1861 147.2 68.8475 134.7 76.299 122.6C78.0831 119.6 80.0772 116.5 81.8614 113.5C84.9049 108.4 87.9485 102.9 89.1029 96.9C89.4178 95.5 89.5227 94 89.6277 92.5C90.2574 76.2 76.8237 62.4 59.6119 61.8H59.297C57.198 61.7 54.5742 61.6 53.1049 59.8L54.3643 58.9C55.4138 60.2 57.4079 60.2 59.4019 60.3H59.7168C77.7683 60.9 91.9366 75.4 91.202 92.6C91.097 94.1 90.9921 95.7 90.6772 97.2C89.4178 103.4 86.3742 109 83.2257 114.2C81.4416 117.3 79.5524 120.3 77.6633 123.3C70.3168 135.4 62.6554 147.8 58.9821 161.4Z" fill="black"/>
<path d="M115.551 170.7V170.4C114.921 147.8 114.396 124.4 110.303 101.8C105.79 76.3 97.3941 54.7 85.3248 37.6L86.5842 36.8C98.6535 54.1 107.154 75.9 111.772 101.6C115.865 124.3 116.39 147.8 117.02 170.5V170.8L115.551 170.7Z" fill="black"/>
<path d="M42.5049 107.2L41.4554 106.1C62.9703 86.6 92.8812 78.5 119.224 73C144.202 67.9 173.588 63.5 202.24 69.7L201.925 71.2C173.588 65 144.412 69.4 119.644 74.5C93.4059 79.9 63.8099 88 42.5049 107.2Z" fill="black"/>
<path d="M160.154 127.7C156.061 118.7 150.184 110.8 142.523 104.2C140.739 102.6 138.745 101.1 136.855 99.6C132.867 96.5 128.669 93.3 125.416 89.3L125.311 89.2C113.137 74.3 115.97 52.8 131.608 41.2L132.552 42.4C117.649 53.5 114.921 74 126.57 88.3L126.675 88.4C129.824 92.2 133.917 95.4 137.905 98.5C139.794 100 141.788 101.5 143.677 103.1C151.444 109.8 157.531 117.9 161.729 127.1L160.154 127.7Z" fill="black"/>
<path d="M7.03171 139.8C4.19805 139.8 2.41389 139.1 1.57428 137.8C-0.104924 135.1 3.04359 130.2 11.1248 122.9C18.4713 116.2 29.701 107.8 43.6594 98.6L44.604 99.8C21.8297 114.9 0.104976 132.3 2.93864 137C3.67329 138.2 8.18616 141.1 37.5723 129.7C58.3525 121.7 84.6951 109 111.982 94C139.164 79 163.933 63.6 181.564 50.5C206.543 32 206.228 26.8 205.493 25.6C204.863 24.6 201.715 22.7 185.867 27.6C174.323 31.1 158.895 37.4 141.158 45.7L140.424 44.4C154.697 37.7 201.61 16.5 206.753 24.9C209.166 29 200.98 38 182.404 51.8C164.667 64.9 139.899 80.4 112.612 95.4C85.3248 110.4 58.8773 123.1 38.0971 131.2C23.404 136.9 13.0139 139.8 7.03171 139.8Z" fill="black"/>
<path d="M145.461 526.6H177.681L164.038 485L137.17 487.8L145.461 526.6Z" fill="black"/>
<path d="M120.063 526.7H83.0159V561.7H120.063V526.7Z" fill="black"/>
<path d="M120.798 562.5H82.1763V526H120.798V562.5ZM83.7505 561H119.224V527.5H83.7505V561Z" fill="black"/>
<path d="M102.432 209.2C88.2634 209.2 76.7188 198.2 76.7188 184.7C76.7188 171.2 88.2634 160.2 102.432 160.2C116.6 160.2 128.145 171.2 128.145 184.7C128.145 198.2 116.6 209.2 102.432 209.2ZM102.432 161.7C89.103 161.7 78.2931 172 78.2931 184.7C78.2931 197.4 89.103 207.7 102.432 207.7C115.76 207.7 126.57 197.4 126.57 184.7C126.57 172 115.655 161.7 102.432 161.7Z" fill="black"/>
<path d="M103.271 201.9C100.123 201.9 96.9742 200.9 94.3505 199.1C90.9921 196.7 88.2633 193.7 86.2693 190.2L87.6336 189.5C89.5228 192.8 92.1465 195.7 95.295 198C98.4436 200.2 102.432 201 106.21 200.2L106.525 201.7C105.475 201.7 104.321 201.9 103.271 201.9Z" fill="black"/>
<path d="M153.333 178.6C144.202 178.6 136.855 171.5 136.855 162.9C136.855 154.2 144.307 147.2 153.333 147.2C162.463 147.2 169.81 154.3 169.81 162.9C169.915 171.5 162.463 178.6 153.333 178.6ZM153.333 148.6C145.042 148.6 138.43 155 138.43 162.8C138.43 170.6 145.147 177 153.333 177C161.519 177 168.236 170.6 168.236 162.8C168.236 155 161.624 148.6 153.333 148.6Z" fill="black"/>
<path d="M153.962 174C151.863 174 149.869 173.4 148.19 172.2C145.986 170.7 144.307 168.7 142.943 166.5L144.307 165.8C145.461 167.9 147.141 169.6 149.03 171.1C150.919 172.4 153.333 172.9 155.642 172.4L155.956 173.9C155.327 173.9 154.592 174 153.962 174Z" fill="black"/>
<path d="M332.693 561.3H453.071C451.917 544.9 443.416 529.8 429.772 519.7C456.115 499 459.788 462 438.063 436.9C435.964 434.5 433.655 432.2 431.137 430.1C443.311 420.1 450.762 405.8 451.917 390.5H331.539C332.588 405.3 339.515 419.1 351.059 429.1C324.822 449.8 321.149 486.9 342.978 511.9C346.127 515.5 349.695 518.8 353.683 521.6C341.404 531.6 333.743 545.9 332.693 561.3Z" fill="#D003A3"/>
<path d="M364.178 135.1H356.727L353.578 127.5H361.03L364.178 135.1Z" fill="black"/>
<path d="M358.616 139.4H351.164L356.727 135.1H364.178L358.616 139.4Z" fill="black"/>
<path d="M361.03 127.5L364.178 135.1L358.616 139.4L355.467 131.8L361.03 127.5Z" fill="black"/>
<path d="M355.467 131.8H348.016L353.578 127.5H361.03L355.467 131.8Z" fill="black"/>
<path d="M358.616 139.4H351.164L348.016 131.8H355.467L358.616 139.4Z" fill="black"/>
<path d="M347.806 147.9H340.354L345.392 143.9H352.844L347.806 147.9Z" fill="black"/>
<path d="M333.428 62.8H340.145C338.675 63 337.416 63.5 336.261 64.4H328.81C329.964 63.5 331.224 63 332.693 62.8H333.428Z" fill="black"/>
<path d="M336.261 64.3H328.81L329.44 63.8H336.891C336.681 64 336.471 64.2 336.261 64.3Z" fill="black"/>
<path d="M336.891 63.9H329.44C330.069 63.5 330.699 63.2 331.329 63H338.78C338.15 63.2 337.521 63.5 336.891 63.9Z" fill="black"/>
<path d="M338.78 63H331.329C331.749 62.9 332.168 62.8 332.693 62.7H340.145C339.62 62.8 339.2 62.9 338.78 63Z" fill="black"/>
<path d="M352.844 143.9H345.392L328.075 104.1H335.527L352.844 143.9Z" fill="black"/>
<path d="M345.182 139.7L337.731 139.6L326.396 113.3H333.848L345.182 139.7Z" fill="black"/>
<path d="M327.341 118.4H319.889L326.396 113.3H333.848L327.341 118.4Z" fill="black"/>
<path d="M335.107 428H327.655C324.297 428 321.149 425.6 319.364 421.3H326.816C328.6 425.6 331.853 428 335.107 428Z" fill="black"/>
<path d="M335.107 428H327.655C324.297 428 321.149 425.6 319.364 421.3H326.816C328.6 425.6 331.853 428 335.107 428Z" fill="black"/>
<path d="M324.927 112.5H317.475L328.075 104.1H335.527L324.927 112.5Z" fill="black"/>
<path d="M327.341 118.4H319.889L317.475 112.5H324.927L327.341 118.4Z" fill="black"/>
<path d="M324.507 166.2H317.055L321.358 162.8H328.81L324.507 166.2Z" fill="black"/>
<path d="M345.182 139.7L337.731 139.6L315.481 129.9H322.933L345.182 139.7Z" fill="black"/>
<path d="M347.806 147.9H340.354L312.438 135.7H319.889L347.806 147.9Z" fill="black"/>
<path d="M321.988 106.4H314.537L312.123 100.5H319.574L321.988 106.4Z" fill="black"/>
<path d="M314.117 112.6H306.665L314.537 106.4H321.988L314.117 112.6Z" fill="black"/>
<path d="M322.933 129.9H315.481L306.665 112.6H314.117L322.933 129.9Z" fill="black"/>
<path d="M319.889 135.7H312.438L299.529 110.4H306.98L319.889 135.7Z" fill="black"/>
<path d="M306.98 110.4H299.529L312.123 100.5H319.574L306.98 110.4Z" fill="black"/>
<path d="M328.81 162.8H321.358L294.386 114.4H301.838L328.81 162.8Z" fill="black"/>
<path d="M324.507 166.2H317.055L293.127 123.2H300.578L324.507 166.2Z" fill="black"/>
<path d="M303.622 164H296.17L291.552 124.5H299.004L303.622 164Z" fill="black"/>
<path d="M299.004 124.5H291.552L293.127 123.2H300.578L299.004 124.5Z" fill="black"/>
<path d="M298.794 167.8H291.343L296.17 164H303.622L298.794 167.8Z" fill="black"/>
<path d="M297.01 149.7H289.558L286.095 120.9H293.547L297.01 149.7Z" fill="black"/>
<path d="M293.547 120.9H286.095L294.386 114.4H301.838L293.547 120.9Z" fill="black"/>
<path d="M297.01 149.7H289.558L279.693 125.9H287.04L297.01 149.7Z" fill="black"/>
<path d="M282.842 129.3H275.39L279.693 125.9H287.04L282.842 129.3Z" fill="black"/>
<path d="M301.838 114.4L328.81 162.8L324.507 166.2L300.578 123.2L299.004 124.5L303.622 164L298.794 167.8L282.842 129.3L287.04 125.9L297.01 149.7L293.547 120.9L301.838 114.4Z" fill="black"/>
<path d="M298.794 167.8H291.343L275.39 129.3H282.842L298.794 167.8Z" fill="black"/>
<path d="M452.547 325.1C455.065 331.4 453.491 339.3 448.873 342.8L339.725 426.4C338.57 427.3 337.206 427.8 335.842 428C332.273 428.4 328.705 426 326.816 421.4L227.743 176.4L223.335 165.6C220.816 159.3 222.39 151.4 227.008 147.9L336.156 64.3C337.311 63.4 338.57 62.9 340.04 62.7C343.608 62.3 347.176 64.7 349.065 69.3L452.547 325.1ZM324.507 166.1L328.81 162.7L301.838 114.3L293.547 120.8L297.01 149.7L287.04 125.9L282.737 129.3L298.794 167.7L303.727 163.8L299.004 124.3L300.578 123.1L324.507 166.1ZM347.806 147.9L352.844 143.9L335.632 104.1L324.927 112.5L327.446 118.4L333.848 113.3L345.287 139.6L323.038 129.8L314.222 112.5L322.093 106.3L319.679 100.4L307.085 110.3L319.994 135.6L347.806 147.9ZM358.616 139.4L364.073 135.1L360.925 127.5L355.467 131.8L358.616 139.4Z" fill="white"/>
<path d="M335.107 428.8C331.329 428.8 327.865 426.1 326.081 421.6L222.6 165.9C219.976 159.4 221.655 151 226.483 147.4L335.632 63.8C336.891 62.8 338.36 62.2 339.935 62C344.028 61.6 347.806 64.4 349.8 69.1L453.281 324.8C455.905 331.4 454.226 339.7 449.398 343.4L340.25 427C338.99 428 337.521 428.6 335.947 428.8C335.632 428.8 335.422 428.8 335.107 428.8ZM340.774 63.5C340.564 63.5 340.354 63.5 340.145 63.5C338.885 63.7 337.731 64.1 336.681 64.9L227.533 148.5C223.23 151.8 221.655 159.4 224.069 165.3L327.551 421C329.23 425.1 332.378 427.5 335.737 427.2C336.996 427.1 338.255 426.6 339.2 425.8L448.349 342.2C452.652 338.9 454.226 331.3 451.812 325.4L348.331 69.7C346.756 65.8 343.923 63.5 340.774 63.5ZM298.479 169.1L281.897 129.2L287.459 124.8L295.541 144.3L292.707 120.6L302.048 113.2L329.755 162.9L324.927 166.7L324.402 166.2L323.667 166.6L300.263 124.5L299.739 124.9L304.461 164.4L298.479 169.1ZM283.786 129.6L299.214 166.6L302.992 163.7L298.269 124.2L300.893 122.1L324.717 165L327.76 162.6L301.523 115.6L294.281 121.3L298.374 155.4L286.62 127.3L283.786 129.6ZM347.386 148.6L319.154 136.2L305.826 110.1L319.784 99.2L322.828 106.6L314.956 112.8L323.457 129.3L343.608 138.1L333.323 114.5L326.816 119.6L323.772 112.2L335.737 102.8L353.578 144.1L348.121 148.5L347.596 147.9L347.386 148.6ZM320.414 135.1L347.596 147.1L351.899 143.7L335.317 105.3L325.871 112.7L327.76 117.1L334.162 112L346.756 141.1L322.408 130.4L313.172 112.3L321.149 106.1L319.259 101.7L308.03 110.6L320.414 135.1ZM359.141 140L358.616 139.4L357.881 139.7L354.523 131.6L361.345 126.3L365.123 135.3L359.141 140ZM356.412 132L358.931 138.1L363.129 134.8L360.61 128.7L356.412 132Z" fill="black"/>
<path d="M319.574 100.5L321.988 106.4L314.117 112.6L322.933 129.9L345.182 139.7L333.848 113.3L327.341 118.4L324.927 112.5L335.527 104.1L352.844 143.9L347.806 147.9L319.889 135.7L306.98 110.4L319.574 100.5Z" fill="black"/>
<path d="M326.921 421.4H319.469L220.291 176.4H227.743L326.921 421.4Z" fill="black"/>
<path d="M227.008 147.9H219.556L328.81 64.3H336.261L227.008 147.9Z" fill="black"/>
<path d="M227.743 176.4H220.291L215.988 165.6H223.335L227.743 176.4Z" fill="black"/>
<path d="M223.335 165.6H215.883C213.364 159.3 214.939 151.4 219.556 147.9H227.008C222.495 151.4 220.816 159.3 223.335 165.6Z" fill="black"/>
<path d="M223.335 165.6H215.883C215.673 165.1 215.463 164.6 215.358 164H222.81C223.02 164.6 223.125 165.1 223.335 165.6Z" fill="black"/>
<path d="M222.81 164.1H215.358C215.148 163.3 214.939 162.4 214.834 161.6H222.285C222.39 162.4 222.6 163.2 222.81 164.1Z" fill="black"/>
<path d="M222.285 161.5H214.834C214.729 160.7 214.729 160 214.729 159.2H222.18C222.18 160 222.18 160.8 222.285 161.5Z" fill="black"/>
<path d="M222.18 159.3H214.729C214.729 158.5 214.729 157.7 214.834 157H222.285C222.285 157.7 222.18 158.5 222.18 159.3Z" fill="black"/>
<path d="M222.39 157H214.939C215.044 156.1 215.253 155.2 215.568 154.3H223.02C222.705 155.2 222.495 156.1 222.39 157Z" fill="black"/>
<path d="M222.915 154.2H215.463C216.093 151.7 217.562 149.5 219.556 147.9H227.008C225.014 149.6 223.545 151.8 222.915 154.2Z" fill="black"/>
<path d="M535.352 451.7H471.962V561H535.352V451.7Z" fill="black"/>
<path d="M554.558 452.5H492.848V561.6H554.558V452.5Z" fill="white"/>
<path d="M553.719 453.2V560.8H493.582V453.3L553.719 453.2ZM555.398 451.7H492.008V562.3H555.398V451.7Z" fill="black"/>
<path d="M506.596 466.5H524.123C524.543 466.5 524.962 466.9 524.962 467.3V484C524.962 484.4 524.543 484.8 524.123 484.8H506.596C506.176 484.8 505.756 484.4 505.756 484V467.3C505.756 466.8 506.176 466.5 506.596 466.5Z" fill="white"/>
<path d="M524.123 485.5H506.596C505.756 485.5 505.022 484.8 505.022 484V467.3C505.022 466.5 505.756 465.8 506.596 465.8H524.123C524.962 465.8 525.697 466.5 525.697 467.3V484C525.697 484.8 524.962 485.5 524.123 485.5ZM506.596 467.2V483.9H524.123V467.2H506.596Z" fill="black"/>
<path d="M506.596 499.3H524.123C524.543 499.3 524.962 499.7 524.962 500.1V516.8C524.962 517.2 524.543 517.6 524.123 517.6H506.596C506.176 517.6 505.756 517.2 505.756 516.8V500.1C505.756 499.7 506.176 499.3 506.596 499.3Z" fill="white"/>
<path d="M524.123 518.3H506.596C505.756 518.3 505.022 517.6 505.022 516.8V500.1C505.022 499.3 505.756 498.6 506.596 498.6H524.123C524.962 498.6 525.697 499.3 525.697 500.1V516.8C525.697 517.6 524.962 518.3 524.123 518.3ZM506.596 500.1V516.8H524.123V500.1H506.596Z" fill="black"/>
<path d="M506.596 532.2H524.123C524.543 532.2 524.962 532.6 524.962 533V549.7C524.962 550.1 524.543 550.5 524.123 550.5H506.596C506.176 550.5 505.756 550.1 505.756 549.7V533C505.756 532.5 506.176 532.2 506.596 532.2Z" fill="white"/>
<path d="M524.123 551.2H506.596C505.756 551.2 505.022 550.5 505.022 549.7V533C505.022 532.2 505.756 531.5 506.596 531.5H524.123C524.962 531.5 525.697 532.2 525.697 533V549.7C525.697 550.5 524.962 551.2 524.123 551.2ZM506.596 532.9V549.6H524.123V532.9H506.596Z" fill="black"/>
<path d="M536.507 466.5H554.034C554.453 466.5 554.873 466.9 554.873 467.3V484C554.873 484.4 554.453 484.8 554.034 484.8H536.507C536.087 484.8 535.667 484.4 535.667 484V467.3C535.667 466.8 536.087 466.5 536.507 466.5Z" fill="white"/>
<path d="M554.034 485.5H536.507C535.667 485.5 534.933 484.8 534.933 484V467.3C534.933 466.5 535.667 465.8 536.507 465.8H554.034C554.873 465.8 555.608 466.5 555.608 467.3V484C555.608 484.8 554.873 485.5 554.034 485.5ZM536.507 467.2V483.9H554.034V467.2H536.507Z" fill="black"/>
<path d="M536.507 499.3H554.034C554.453 499.3 554.873 499.7 554.873 500.1V516.8C554.873 517.2 554.453 517.6 554.034 517.6H536.507C536.087 517.6 535.667 517.2 535.667 516.8V500.1C535.667 499.7 536.087 499.3 536.507 499.3Z" fill="white"/>
<path d="M554.034 518.3H536.507C535.667 518.3 534.933 517.6 534.933 516.8V500.1C534.933 499.3 535.667 498.6 536.507 498.6H554.034C554.873 498.6 555.608 499.3 555.608 500.1V516.8C555.608 517.6 554.873 518.3 554.034 518.3ZM536.507 500.1V516.8H554.034V500.1H536.507Z" fill="black"/>
<path d="M536.507 532.2H554.034C554.453 532.2 554.873 532.6 554.873 533V549.7C554.873 550.1 554.453 550.5 554.034 550.5H536.507C536.087 550.5 535.667 550.1 535.667 549.7V533C535.667 532.5 536.087 532.2 536.507 532.2Z" fill="white"/>
<path d="M554.034 551.2H536.507C535.667 551.2 534.933 550.5 534.933 549.7V533C534.933 532.2 535.667 531.5 536.507 531.5H554.034C554.873 531.5 555.608 532.2 555.608 533V549.7C555.608 550.5 554.873 551.2 554.034 551.2ZM536.507 532.9V549.6H554.034V532.9H536.507Z" fill="black"/>
<path d="M633.376 381H545.638V561.7H633.376V381Z" fill="white"/>
<path d="M634.216 562.4H544.903V380.2H634.216V562.4ZM546.477 560.9H632.642V381.7H546.477V560.9Z" fill="black"/>
<path d="M633.376 403H565.788V561.7H633.376V403Z" fill="white"/>
<path d="M634.216 562.4H565.053V402.2H634.216V562.4ZM566.628 560.9H632.642V403.7H566.628V560.9Z" fill="black"/>
<path d="M581.042 402.491L579.929 403.552L633.145 454.244L634.258 453.183L581.042 402.491Z" fill="black"/>
<path d="M566.405 424.204L565.275 425.247L632.895 491.753L634.026 490.709L566.405 424.204Z" fill="black"/>
</svg>
