<svg width="133" height="87" viewBox="0 0 133 87" fill="none" xmlns="http://www.w3.org/2000/svg">
<g clip-path="url(#clip0_2_259)">
<path d="M32.9591 4.96436L29.3431 15.0732C27.4451 20.4813 25.2977 26.8461 22.2359 36.2755L29.163 7.00277L23.5521 4.97822L7.13489 50.3086L11.0833 51.834L14.6854 41.739C16.5834 36.539 18.6061 30.4237 21.7787 20.6338L14.8517 49.754L20.3933 51.7924L36.9629 6.4897L32.9591 4.96436Z" fill="white"/>
<path d="M42.9479 25.5703L35.3558 46.5645C34.3926 47.0049 33.3846 47.3397 32.3495 47.5629C32.3924 47.1974 32.4808 46.8387 32.6127 46.4952L44.9706 12.2998C46.1067 9.23522 46.6608 9.23522 47.1042 9.23522C47.5475 9.23522 47.9908 9.36002 47.9908 10.3862C47.8168 11.9283 47.4201 13.437 46.8132 14.8651L46.3837 15.9883L50.54 17.4998L50.8725 16.5014C51.7051 14.4731 52.174 12.3139 52.2579 10.1227C52.307 8.74487 51.8089 7.40368 50.8725 6.39253C50.4046 5.927 49.8454 5.56346 49.2303 5.32481C48.6151 5.08616 47.9573 4.97757 47.2981 5.00586C46.5474 4.98077 45.8 5.11762 45.1068 5.40713C44.4136 5.69664 43.7907 6.13202 43.2804 6.68374C41.9246 8.31747 40.9031 10.2021 40.2741 12.2304L28.401 45.053C27.5144 47.5352 27.4728 49.4627 28.3041 50.5997C28.5919 50.9878 28.972 51.2976 29.41 51.501C29.848 51.7045 30.3298 51.795 30.8117 51.7645C32.7374 51.7645 33.8042 50.5581 36.0901 47.9235L39.1242 49.0051L47.1042 27.0817L42.9479 25.5703Z" fill="white"/>
<path d="M44.2779 50.1837L48.8359 51.8339L52.244 42.5154L47.6999 40.8792L44.2779 50.1837Z" fill="white"/>
<path d="M63.646 44.4984C62.51 47.5768 61.9558 47.5768 61.5125 47.5768C61.0692 47.5768 60.6258 47.4381 60.6258 46.4259C60.7986 44.8775 61.2002 43.3634 61.8173 41.933L72.5404 12.2998C73.6903 9.23524 74.2445 9.23524 74.6878 9.23524C75.1311 9.23524 75.5606 9.36004 75.5606 10.3862C75.3866 11.9283 74.9899 13.437 74.383 14.8651L73.9674 15.9884L78.1236 17.4998L78.4561 16.5014C79.2876 14.4728 79.7566 12.3138 79.8416 10.1227C79.8846 8.74588 79.3873 7.4069 78.4561 6.39256C77.9868 5.92907 77.4274 5.56687 76.8126 5.32836C76.1978 5.08985 75.5406 4.98009 74.8818 5.00588C74.1307 4.97803 73.3825 5.11362 72.6889 5.4033C71.9952 5.69298 71.3726 6.12985 70.8641 6.68376C69.4982 8.3128 68.4713 10.1986 67.8439 12.2305L58.6863 37.5789C56.622 43.3197 56.4142 44.6925 56.4142 46.6893C56.3688 48.0624 56.8667 49.3979 57.7996 50.4056C58.2665 50.8725 58.8255 51.237 59.4409 51.4757C60.0563 51.7145 60.7146 51.8223 61.374 51.7923C62.1256 51.8147 62.8733 51.6753 63.5665 51.3834C64.2596 51.0916 64.8821 50.6541 65.3917 50.1006C66.7566 48.4709 67.7834 46.5853 68.4119 44.5539L69.7973 40.5602L65.641 39.1736L63.646 44.4984Z" fill="white"/>
<path d="M106.442 12.2998C107.578 9.23526 108.132 9.23526 108.575 9.23526C109.018 9.23526 109.462 9.36006 109.462 10.3862C109.289 11.93 108.887 13.4395 108.27 14.8652L107.855 15.9884L112.011 17.4998L112.357 16.5014C113.19 14.4732 113.659 12.3139 113.743 10.1227C113.786 8.74589 113.288 7.40691 112.357 6.39257L112.108 6.15684L113.784 1.51148L109.642 0L107.813 5.0891C106.732 5.24024 105.725 5.72494 104.931 6.47577C103.715 7.69256 102.812 9.18672 102.299 10.8299C100.706 15.2534 100.193 21.9788 99.75 28.5378C99.2928 34.861 98.8494 40.8376 97.5194 44.4984C96.3695 47.5768 95.8154 47.5768 95.372 47.5768C94.9287 47.5768 94.4992 47.4382 94.4992 46.4259C94.6467 44.8879 95.0153 43.3794 95.5937 41.9469L96.0232 40.8237L91.8669 39.2984L91.5344 40.3106C90.7019 42.3389 90.2329 44.4982 90.149 46.6893C90.1329 47.9985 90.5905 49.2692 91.4375 50.267L89.7888 54.8014L93.9451 56.3129L95.5937 51.7784C96.8612 51.7304 98.0718 51.2398 99.0157 50.3918C100.242 49.18 101.151 47.6845 101.662 46.0376C103.255 41.6419 103.754 34.8471 104.239 28.2882H103.989H104.239C104.668 21.9372 105.112 15.9745 106.442 12.2998Z" fill="white"/>
<path d="M128.858 4.97815L121.113 26.3607H118.342L125.533 6.48963L121.39 4.97815L104.931 50.3224L109.074 51.8339L116.818 30.5762H119.589L112.413 50.3224L116.555 51.8339L133 6.48963L128.858 4.97815Z" fill="white"/>
<path d="M90.5924 4.99207L70.6562 50.3086L74.8125 51.8201L83.7761 30.5762H85.3417L79.4952 50.3363L83.6515 51.834L96.4943 7.15528L90.5924 4.99207ZM86.9765 26.3469H85.2031L91.77 10.3308L92.0471 10.4417L87.0596 26.3469H86.9765Z" fill="white"/>
<path d="M15.0318 79.2624L30.4376 78.3472L124.41 68.5295L124.189 64.4666H0.221667V68.5295H56.3172L110.653 67.4202L69.5756 70.1797L0 77.4458L0.0969792 81.5227L98.8356 87L99.0711 82.9509L30.4376 79.1376L15.0318 79.2624Z" fill="white"/>
</g>
<defs>
<clipPath id="clip0_2_259">
<rect width="133" height="87" fill="white"/>
</clipPath>
</defs>
</svg>
