<svg width="106" height="115" viewBox="0 0 106 115" fill="none" xmlns="http://www.w3.org/2000/svg">
<path d="M0 74.7881L2.46369 72.0442L0 68.3945L2.53105 65.5724L0.403088 62.403L11.6695 49.8352C16.8942 44.0212 23.4661 39.5753 30.8089 36.8889C30.5963 36.4738 30.4055 36.0482 30.2376 35.6123C28.0898 35.2859 26.0984 34.2939 24.5453 32.7744C22.992 31.255 21.955 29.2866 21.5809 27.1458C19.9153 26.5584 18.3883 25.6342 17.0939 24.4333C15.7996 23.2298 14.7652 21.7757 14.0548 20.1596C13.1803 17.8518 12.827 15.3795 13.0205 12.9203C13.2142 10.4636 13.9499 8.07744 15.1748 5.93668L18.3666 0L22.8463 4.99421C24.6662 7.22373 27.0879 8.88412 29.8233 9.77697C30.7668 10.0224 31.738 10.1425 32.7128 10.1347C34.7823 10.0824 36.8353 9.75089 38.8163 9.15043L39.197 9.04861C41.445 8.32807 43.7816 7.92081 46.1406 7.83988C48.4354 7.79289 50.6858 8.47685 52.5688 9.78741C58.0228 13.6303 57.3284 21.042 57.1156 23.517C56.8582 26.2738 56.511 29.0386 56.0966 31.8059C60.4755 30.2264 64.5263 27.8533 68.046 24.8066L78.4837 15.8468L105.429 55.6831L102.629 58.1137L105.093 61.7634L102.316 64.0034L105.093 68.1256L102.192 70.5535C104.432 75.4381 102.069 80.3436 100.524 83.6121L100.367 83.9254C98.6982 87.489 98.0262 90.2772 98.2502 92.6947C98.6818 95.5377 99.9176 98.1954 101.812 100.354L106 105.641L99.6166 107.881C97.7168 108.534 95.7228 108.865 93.7147 108.868C90.7915 108.925 87.9127 108.147 85.4161 106.628C83.9447 105.662 82.6882 104.404 81.7246 102.934C80.7613 101.461 80.1117 99.8062 79.8165 98.0701C77.8028 97.3835 76.0493 96.0964 74.793 94.3786C73.537 92.6608 72.8392 90.6009 72.7945 88.4732C71.6699 87.8885 70.6426 87.1314 69.7484 86.2333L68.147 86.3455C63.1011 86.604 58.156 87.8545 53.5941 90.0266C49.0319 92.1986 44.9428 95.2479 41.5601 98.9995L27.057 114.87L0 74.7881Z" fill="black"/>
<path d="M6.05884 75.2032L14.8278 65.4132C18.6316 61.1734 23.2392 57.7326 28.3838 55.2864C33.5284 52.8402 39.1071 51.4408 44.7968 51.1693C54.3712 50.6916 63.5123 47.0314 70.7676 40.7658L77.1288 35.2781L98.6872 67.1937L93.9274 71.081C86.658 77.3518 77.501 81.0146 67.9118 81.4845C62.2281 81.7639 56.6564 83.171 51.5196 85.6198C46.3828 88.0686 41.7833 91.5121 37.9877 95.7519L27.6173 107.142L6.05884 75.2032Z" fill="#009300"/>
<path d="M6.05884 68.8071L14.8278 59.0301C18.6324 54.793 23.2407 51.3521 28.3851 48.9085C33.5297 46.4649 39.1079 45.0682 44.7968 44.7967C54.3853 44.3294 63.5407 40.6614 70.8013 34.3827L77.1622 28.9055L98.6872 60.8236L93.9274 64.7214C86.658 70.9922 77.501 74.6524 67.9118 75.1249C62.2296 75.4017 56.659 76.8036 51.5222 79.2498C46.3857 81.6934 41.7854 85.1342 37.9877 89.3688L27.6173 100.793L6.05884 68.8071Z" fill="#009300"/>
<path d="M27.5276 102.036L5.0061 68.8644L6.32763 67.969L27.7067 99.4589L37.3939 88.8309C41.2721 84.5285 45.9606 81.0328 51.1916 78.5448C56.4223 76.0542 62.093 74.6235 67.8782 74.3285C77.284 73.8534 86.2639 70.2611 93.401 64.1156L98.1718 60.2074L99.191 61.4501L94.4314 65.3348C87.0289 71.71 77.7127 75.4329 67.9566 75.9185C56.6985 76.5059 46.1337 81.5366 38.5812 89.9065L27.5276 102.036Z" fill="black"/>
<path d="M50.037 38.4135C51.0643 33.3279 51.812 28.1927 52.2769 23.0262C52.5905 19.6662 52.5009 15.6223 49.7346 13.6512C46.9684 11.6802 43.2952 12.868 40.0809 13.7635C36.3293 14.8156 32.3199 15.4108 28.5571 14.4031C24.9324 13.27 21.7098 11.1215 19.273 8.21057C18.3992 9.72476 17.8693 11.4112 17.7202 13.1526C17.5711 14.8939 17.8069 16.6483 18.4107 18.2878C19.7432 21.4363 23.3047 23.6867 26.6307 22.8904C26.1521 23.9216 25.9921 25.0729 26.1712 26.1955C26.3503 27.3181 26.8604 28.3624 27.6361 29.1926C28.412 30.0254 29.4181 30.6049 30.5258 30.8608C31.6335 31.1166 32.7924 31.0357 33.8542 30.6311C33.9837 32.5134 34.6494 34.3225 35.7725 35.8393C36.8956 37.3561 38.4294 38.5231 40.1929 39.1967" fill="white"/>
<path d="M39.9132 39.959C38.1649 39.275 36.6253 38.1472 35.4469 36.6852C34.2682 35.2233 33.4917 33.4793 33.1936 31.6257C32.1227 31.8555 31.0111 31.8111 29.9621 31.4952C28.9134 31.1793 27.9613 30.605 27.1948 29.8218C26.428 29.0386 25.8717 28.0752 25.5775 27.0205C25.283 25.9658 25.2603 24.8536 25.5112 23.7885C23.8317 23.7911 22.1891 23.2951 20.7929 22.3605C19.3967 21.4284 18.3101 20.0996 17.6716 18.5463C17.0372 16.7997 16.7936 14.9383 16.9581 13.0873C17.1225 11.2364 17.6911 9.44545 18.6237 7.83988L19.1724 6.85303L19.9228 7.6832C22.2486 10.4871 25.3373 12.5548 28.8147 13.6408C31.8833 14.471 35.4111 14.2674 39.9244 13.0038L40.2717 12.902C43.5752 11.983 47.327 10.9309 50.2499 13.0142C53.4642 15.2542 53.4305 19.8672 53.1282 23.094C52.6403 28.2893 51.8701 33.4558 50.8212 38.5701L49.2756 38.2569C50.2967 33.2026 51.0444 28.0935 51.5156 22.9583C51.773 20.1022 51.8404 16.1053 49.2756 14.3013C46.9686 12.667 43.6089 13.6068 40.6523 14.437L40.3163 14.5597C35.5231 15.8912 31.7267 16.1053 28.367 15.1967C24.96 14.1629 21.8954 12.2284 19.4972 9.59684C18.8905 10.897 18.5485 12.3041 18.4908 13.7348C18.4331 15.168 18.661 16.5987 19.1612 17.9406C20.4154 20.888 23.6967 22.7468 26.463 22.0863L28.0756 21.6921L27.3815 23.1933C26.9601 24.0809 26.8155 25.0729 26.9664 26.0441C27.117 27.0153 27.5561 27.916 28.2263 28.6339C28.8967 29.3518 29.7674 29.8505 30.7249 30.0672C31.6828 30.2838 32.6835 30.2055 33.5969 29.8453L34.7167 29.4536V30.5736C34.825 32.3019 35.4255 33.9649 36.4475 35.3642C37.4694 36.7636 38.87 37.8418 40.4844 38.4683L39.9132 39.959Z" fill="black"/>
<path d="M80.0297 67.9219C82.9973 67.9219 85.9763 68.0785 88.9891 68.303C92.3487 68.5615 96.3245 69.3108 97.8139 72.3679C99.3033 75.425 97.433 78.8528 96.0444 81.8655C94.3757 85.3925 93.1215 89.2459 93.4799 93.1201C93.9961 96.8821 95.582 100.414 98.0491 103.302C96.4125 103.913 94.6615 104.158 92.9199 104.017C91.1784 103.879 89.4885 103.359 87.9698 102.495C85.0916 100.657 83.4902 96.7594 84.8005 93.6136C83.7045 93.9138 82.5438 93.8799 81.4677 93.5144C80.3913 93.1515 79.4483 92.4727 78.7599 91.5694C78.0712 90.6661 77.6686 89.5774 77.6036 88.4418C77.5386 87.3088 77.8141 86.181 78.3947 85.202C76.4205 85.1054 74.5562 84.2647 73.1751 82.8497C71.7941 81.4374 70.9983 79.5524 70.9472 77.5762C69.2113 77.9913 66.0978 76.4562 65.5379 74.7984C64.7317 72.4018 65.2804 71.6734 65.5379 70.0052" fill="white"/>
<path d="M93.7249 104.834C91.5557 104.868 89.4209 104.291 87.5655 103.166C86.1526 102.273 85.0324 100.986 84.3437 99.4641C83.655 97.9395 83.4278 96.2504 83.6905 94.5978C82.6162 94.6578 81.544 94.449 80.571 93.9895C79.598 93.53 78.755 92.8356 78.118 91.9688C77.481 91.0995 77.0701 90.0891 76.9226 89.0214C76.7751 87.9562 76.8957 86.8702 77.2734 85.8625C75.4525 85.5466 73.7837 84.6459 72.5178 83.2988C71.2516 81.9517 70.4564 80.2312 70.2515 78.3933C68.1909 78.3933 65.4246 76.9261 64.7863 75.0334C64.2655 73.6889 64.1908 72.2139 64.5735 70.8224C64.6297 70.5326 64.6968 70.2193 64.7526 69.8721L66.3318 70.107C66.3318 70.4986 66.1974 70.8459 66.1303 71.227C65.8068 72.334 65.8661 73.5166 66.2981 74.587C66.7125 75.8166 69.378 77.1611 70.7778 76.8269L71.6962 76.6024V77.5527C71.7422 79.3358 72.4601 81.0353 73.7065 82.3093C74.9525 83.586 76.6349 84.343 78.4156 84.4292L79.7259 84.4971L79.0542 85.6171C78.5542 86.4577 78.3172 87.4289 78.3738 88.4079C78.4302 89.3843 78.7777 90.3215 79.3714 91.0995C79.965 91.8775 80.7777 92.4596 81.7051 92.7729C82.6324 93.0836 83.632 93.1123 84.5752 92.8512L86.2328 92.3918L85.5832 93.9268C84.4632 96.5584 85.7511 100.098 88.4503 101.767C89.6932 102.482 91.0659 102.942 92.4885 103.122C93.911 103.304 95.3552 103.2 96.7376 102.819C94.5535 100.012 93.1615 96.6707 92.7059 93.1436C92.3812 89.6819 93.221 85.9747 95.3378 81.4739L95.4944 81.1476C96.8047 78.3594 98.2941 75.2135 97.0624 72.6603C95.7072 69.859 91.7538 69.3003 88.898 69.0419C85.7623 68.8069 82.8618 68.6947 80.0397 68.6607V67.0708C82.8953 67.0708 85.8184 67.217 88.999 67.452C92.1794 67.687 96.771 68.4257 98.4847 71.9319C100.052 75.1691 98.3951 78.6518 96.9279 81.7976L96.771 82.1109C94.7778 86.3559 93.9938 89.7941 94.2849 92.9635C94.7892 96.5688 96.3168 99.9549 98.6862 102.717L99.3806 103.602L98.3277 103.973C96.8514 104.511 95.2962 104.803 93.7249 104.834Z" fill="black"/>
<path d="M99.0783 54.8763L92.7284 60.3639C85.4655 66.6452 76.3046 70.308 66.7127 70.7675C65.7606 70.8223 64.82 70.8902 63.8793 71.0025H63.5655C58.976 71.5794 54.5075 72.8822 50.3284 74.8663C45.1945 77.2942 40.5955 80.722 36.7996 84.9461L27.9972 94.757L23.8647 88.6298L6.43872 62.8728L15.2189 53.0958C19.013 48.8456 23.6128 45.3944 28.7514 42.9377C33.8902 40.4811 39.4656 39.0687 45.1543 38.7815C47.9151 38.6536 50.6568 38.2541 53.3408 37.5963C55.273 37.1185 57.1702 36.5076 59.0188 35.7688C63.4465 33.9935 67.5489 31.4977 71.1587 28.3779L77.5087 22.9008L84.9561 33.923L85.1128 34.158L99.0783 54.8763Z" fill="#00CE00"/>
<path opacity="0.26" d="M85.1126 34.158L63.834 70.9581H63.5204C58.9309 71.5351 54.4624 72.8378 50.283 74.8219C45.1494 77.2499 40.5504 80.6777 36.7545 84.9017L27.9967 94.7571L23.8643 88.6298L53.3182 37.6067C55.2503 37.129 57.1472 36.5181 58.9961 35.7818C63.4236 34.0066 67.526 31.5082 71.136 28.391L77.486 22.9138L84.9332 33.9335L85.1126 34.158Z" fill="white"/>
<path d="M52.77 66.0188C60.7057 66.0188 67.1386 61.0142 67.1386 54.8425C67.1386 48.6709 60.7057 43.6662 52.77 43.6662C44.8346 43.6662 38.4016 48.6709 38.4016 54.8425C38.4016 61.0142 44.8346 66.0188 52.77 66.0188Z" fill="#64FF00"/>
<path d="M52.7696 66.8151C44.4039 66.8151 37.5947 61.4397 37.5947 54.8425C37.5947 48.2453 44.4039 42.8595 52.7696 42.8595C61.1355 42.8595 67.9444 48.2349 67.9444 54.8764C67.9444 61.518 61.1355 66.8151 52.7696 66.8151ZM52.7696 44.4154C45.2887 44.4598 39.1961 49.1199 39.1961 54.8764C39.1961 60.633 45.2887 65.2565 52.7696 65.2565C60.2507 65.2565 66.343 60.5651 66.343 54.8764C66.343 49.1878 60.2507 44.4598 52.7696 44.4598V44.4154Z" fill="black"/>
<path d="M52.2663 61.0481C51.5209 61.0821 50.7769 60.9489 50.0905 60.6565C49.4039 60.3641 48.7925 59.9177 48.302 59.3564L48.1563 59.1763C48.0302 59.0066 47.9762 58.7951 48.0054 58.5837C48.0349 58.3748 48.1453 58.1868 48.3132 58.0563C48.3973 57.9937 48.4933 57.9466 48.5957 57.9231C48.6978 57.897 48.804 57.8918 48.9082 57.9075C49.0123 57.9232 49.1123 57.9597 49.2027 58.0119C49.2927 58.0667 49.371 58.1398 49.4329 58.226L49.5898 58.427C50.1258 58.9204 50.7868 59.2598 51.5014 59.406C52.2159 59.5522 52.9568 59.5 53.6439 59.2546L58.829 57.6438C59.1457 57.5812 59.4443 57.448 59.7023 57.2522C59.9602 57.059 60.1709 56.8084 60.3187 56.5238C60.3612 56.3881 60.3683 56.2419 60.3388 56.1035C60.3093 55.9652 60.2445 55.8346 60.1505 55.7276L59.8145 55.2681C59.2788 54.7747 58.6178 54.4353 57.9033 54.2891C57.1885 54.1429 56.4476 54.1951 55.7604 54.4405L50.5641 55.9965C48.3915 56.6674 45.838 55.9965 44.7517 54.5971L44.5165 54.2708C44.2698 53.9601 44.103 53.5946 44.0307 53.203C43.9586 52.8141 43.9831 52.4094 44.1022 52.0308C44.3238 51.4956 44.6697 51.0179 45.1117 50.6394C45.5537 50.2608 46.079 49.9945 46.6445 49.8588L51.8295 48.2454C54.0024 47.5744 56.5556 48.1905 57.6419 49.6473C57.7667 49.817 57.8192 50.0311 57.7876 50.2399C57.7563 50.4514 57.6435 50.6394 57.4741 50.7673C57.3897 50.8299 57.2937 50.8743 57.1916 50.9004C57.0895 50.9265 56.983 50.9318 56.8788 50.9161C56.7747 50.9004 56.6747 50.8639 56.5846 50.8091C56.4945 50.7569 56.4162 50.6837 56.3541 50.5976C55.8181 50.1068 55.1589 49.7726 54.447 49.6264C53.7353 49.4802 52.997 49.5298 52.3112 49.77L47.1149 51.4043C46.7988 51.4696 46.5009 51.6027 46.2432 51.7959C45.9855 51.9891 45.7743 52.2397 45.6252 52.5243C45.5817 52.66 45.5741 52.8062 45.6036 52.9446C45.6331 53.083 45.6983 53.2135 45.7934 53.3205L46.0396 53.6547C46.575 54.1507 47.236 54.4901 47.9508 54.6363C48.6656 54.7825 49.4068 54.7303 50.0937 54.4849L55.279 52.8715C57.4404 52.2005 59.9939 52.8715 61.0802 54.2708L61.4274 54.7303C61.6723 55.0436 61.837 55.4091 61.9073 55.8007C61.9775 56.1923 61.9511 56.5917 61.8305 56.9703C61.6128 57.5107 61.2682 57.991 60.8254 58.3696C60.3829 58.7455 59.8555 59.0118 59.2882 59.1424L54.1032 60.7557C53.5095 60.9463 52.89 61.0455 52.2663 61.0481Z" fill="black"/>
<path d="M57.3733 61.2256C57.2472 61.2256 57.1227 61.1969 57.0099 61.1395C56.8972 61.0847 56.799 61.0011 56.7238 60.9019L47.6188 48.6813C47.5556 48.5978 47.5094 48.5038 47.4831 48.402C47.4567 48.3001 47.4507 48.1931 47.4653 48.0913C47.4799 47.9869 47.5147 47.8851 47.5679 47.7963C47.6212 47.7049 47.6916 47.6266 47.7757 47.5639C47.8595 47.4987 47.9548 47.4543 48.0566 47.4282C48.1582 47.3995 48.2639 47.3943 48.3681 47.4099C48.472 47.423 48.5722 47.4595 48.6626 47.5117C48.7532 47.564 48.8323 47.6344 48.8954 47.7206L58.0117 59.949C58.1365 60.1213 58.1887 60.3327 58.1573 60.5442C58.126 60.7531 58.0132 60.941 57.8435 61.069C57.7062 61.1682 57.5423 61.223 57.3733 61.2256Z" fill="black"/>
<path d="M92.6944 78.798H91.2946C89.872 78.7928 88.4988 78.2759 87.4253 77.3439C86.352 76.4093 85.6503 75.1222 85.4487 73.7124L87.0277 73.4879C87.1778 74.5139 87.6908 75.4538 88.4737 76.1325C89.2567 76.8139 90.2576 77.1898 91.2946 77.1951H92.6944V78.798Z" fill="black"/>
<path d="M85.5047 79.5917H84.1049C82.6831 79.5865 81.3109 79.0696 80.2379 78.1349C79.1652 77.2029 78.4629 75.9158 78.259 74.5087L79.838 74.2842C79.9881 75.3102 80.5011 76.2474 81.284 76.9288C82.067 77.6076 83.0679 77.9861 84.1049 77.9913H85.5047V79.5917Z" fill="black"/>
<path d="M44.797 27.6967H43.3856C41.9638 27.6889 40.5917 27.172 39.5187 26.24C38.446 25.3053 37.7437 24.0183 37.5398 22.6111L39.1187 22.3866C39.2688 23.4126 39.7821 24.3524 40.5648 25.0312C41.3477 25.7126 42.3487 26.0885 43.3856 26.0938H44.797V27.6967Z" fill="black"/>
<path d="M27.93 96.0546L5.45337 62.7163L14.6367 52.4798C18.5107 48.1696 23.196 44.666 28.4247 42.1676C33.6534 39.6692 39.323 38.2255 45.1095 37.9201C47.8197 37.8078 50.5126 37.4319 53.1504 36.8001C55.0575 36.338 56.9289 35.7402 58.7501 35.0092C63.0971 33.2731 67.1243 30.8243 70.666 27.7619L77.6991 21.6816L100.142 54.9756L93.2434 60.9227C85.8374 67.3084 76.5129 71.0417 66.7463 71.5299C65.6263 71.5847 64.6408 71.6735 63.6665 71.7857C59.1589 72.3497 54.7698 73.6263 50.6643 75.5713C45.6202 77.9653 41.1076 81.3487 37.3932 85.5179L27.93 96.0546ZM7.46907 62.8938L28.1091 93.4674L36.1949 84.4423C40.0555 80.119 44.7433 76.6181 49.9811 74.138C54.2224 72.1199 58.7595 70.7937 63.4201 70.2063C64.4393 70.0836 65.5143 69.9844 66.6231 69.927C76.032 69.4597 85.0163 65.87 92.1571 59.7244L97.9807 54.6963L77.3631 24.0887L71.674 28.9942C68.0088 32.1609 63.8466 34.6985 59.355 36.5103C57.468 37.27 55.5293 37.894 53.5538 38.3796C50.8175 39.0479 48.0236 39.4525 45.2103 39.5883C39.6342 39.8702 34.1685 41.2539 29.1275 43.6531C24.0865 46.0523 19.5693 49.4253 15.835 53.5763L7.46907 62.8938Z" fill="black"/>
</svg>
