<svg width="142" height="134" viewBox="0 0 142 134" fill="none" xmlns="http://www.w3.org/2000/svg">
<path fill-rule="evenodd" clip-rule="evenodd" d="M61.23 1.48702C38.172 7.97302 25.863 30.502 33.005 53.145C39.139 72.593 60.417 84.563 80.015 79.591C112.965 71.232 122.055 28.805 95.274 8.37902C86.256 1.50102 71.675 -1.45098 61.23 1.48702ZM30.313 77.916C21.061 84.413 13.979 92.602 8.61698 103C4.34898 111.277 0.999979 121.942 0.999979 127.257C0.999979 133.148 -0.804024 133 71 133C146.408 133 141.695 133.57 140.638 124.574C138.554 106.845 125.917 87.165 109.79 76.534L104.079 72.769L100.137 75.892C97.968 77.609 93.113 80.473 89.347 82.257C82.86 85.329 81.895 85.5 71 85.5C60.105 85.5 59.14 85.329 52.653 82.257C48.887 80.473 44.097 77.661 42.009 76.007C39.921 74.353 38.01 73 37.763 73C37.516 73 34.163 75.212 30.313 77.916Z" fill="#818A97"/>
</svg>
