<svg width="281" height="281" viewBox="0 0 281 281" fill="none" xmlns="http://www.w3.org/2000/svg">
<path d="M256.038 135.817H251.354V103.033C251.354 101.188 250.991 99.3612 250.285 97.6566C249.579 95.952 248.544 94.4031 247.239 93.0984C245.935 91.7938 244.386 90.7589 242.681 90.0528C240.977 89.3467 239.15 88.9833 237.304 88.9833H226.767L221.334 68.6576C220.368 65.0639 218.016 62.0001 214.794 60.1387C211.571 58.2773 207.742 57.7703 204.146 58.729L198.995 60.134L192.017 45.4751C191.237 43.7956 190.132 42.2869 188.767 41.0356C187.402 39.7844 185.803 38.8154 184.062 38.1843C182.321 37.5532 180.473 37.2725 178.623 37.3583C176.773 37.4441 174.958 37.8947 173.283 38.6843L65.2388 88.9833H59.3378C55.6115 88.9833 52.0378 90.4636 49.4029 93.0984C46.7681 95.7333 45.2878 99.307 45.2878 103.033V155.674C35.8896 159.958 28.24 167.328 23.6102 176.561C18.9803 185.793 17.649 196.332 19.8374 206.426C22.0258 216.52 27.6021 225.561 35.6398 232.048C43.6776 238.534 53.6927 242.075 64.0211 242.081H237.304C241.031 242.081 244.604 240.601 247.239 237.966C249.874 235.331 251.354 231.758 251.354 228.031V195.248H256.038C257.28 195.248 258.471 194.755 259.349 193.876C260.228 192.998 260.721 191.807 260.721 190.565V140.5C260.721 139.258 260.228 138.067 259.349 137.188C258.471 136.31 257.28 135.817 256.038 135.817ZM177.358 46.8333C178.482 46.3056 179.77 46.246 180.938 46.6676C182.106 47.0891 183.059 47.9574 183.587 49.0813L189.769 62.382L147.15 73.8093C146.554 73.9692 145.994 74.2451 145.505 74.6211C145.015 74.9971 144.603 75.466 144.295 76.0009C143.986 76.5358 143.786 77.1263 143.705 77.7386C143.624 78.351 143.665 78.9732 143.825 79.5698C143.985 80.1664 144.261 80.7256 144.637 81.2156C145.013 81.7055 145.482 82.1167 146.017 82.4254C146.552 82.7342 147.142 82.9346 147.754 83.0151C148.367 83.0957 148.989 83.0549 149.586 82.895L206.582 67.6273C207.774 67.3113 209.043 67.4784 210.112 68.0922C211.182 68.7059 211.967 69.7169 212.295 70.9056L216.979 88.796H87.391L177.358 46.8333ZM28.1 196.7C28.0907 189.593 30.1896 182.644 34.131 176.73C38.0724 170.817 43.6793 166.206 50.2422 163.48C56.8051 160.754 64.0291 160.036 71.0003 161.416C77.9714 162.797 84.3763 166.215 89.4046 171.236C94.433 176.258 97.8588 182.659 99.2486 189.628C100.638 196.597 99.9298 203.822 97.2124 210.389C94.495 216.955 89.8909 222.568 83.9827 226.517C78.0745 230.466 71.1277 232.574 64.0211 232.574C54.5061 232.562 45.3837 228.78 38.6512 222.056C31.9187 215.332 28.1247 206.215 28.1 196.7ZM241.988 210.75H156.611C155.369 210.75 154.178 211.244 153.3 212.122C152.422 213 151.928 214.191 151.928 215.433C151.928 216.675 152.422 217.866 153.3 218.745C154.178 219.623 155.369 220.116 156.611 220.117H241.988V227.891C241.988 229.133 241.494 230.324 240.616 231.203C239.738 232.081 238.547 232.574 237.304 232.574H91.4655C95.9523 229.169 99.7507 224.941 102.659 220.117H115.538C116.78 220.116 117.971 219.623 118.849 218.745C119.727 217.866 120.22 216.675 120.22 215.433C120.22 214.191 119.727 213 118.849 212.122C117.971 211.244 116.78 210.75 115.538 210.75H107.014C109.242 203.956 109.828 196.73 108.724 189.666C107.619 182.601 104.856 175.899 100.661 170.109C96.4657 164.319 90.9578 159.606 84.5889 156.356C78.2199 153.106 71.1714 151.411 64.0211 151.412C60.8727 151.403 57.7323 151.732 54.6545 152.396V103.033C54.6545 101.791 55.1479 100.6 56.0262 99.7217C56.9045 98.8434 58.0957 98.35 59.3378 98.35H237.304C238.547 98.35 239.738 98.8434 240.616 99.7217C241.494 100.6 241.988 101.791 241.988 103.033V135.817H193.562C189.016 135.817 184.656 137.623 181.442 140.837C178.227 144.052 176.421 148.412 176.421 152.958V177.967C176.421 180.218 176.865 182.447 177.726 184.526C178.587 186.606 179.85 188.495 181.442 190.087C183.033 191.679 184.923 192.941 187.003 193.803C189.082 194.664 191.311 195.108 193.562 195.108H241.988V210.75ZM251.354 185.741H193.562C191.5 185.741 189.523 184.922 188.065 183.464C186.607 182.006 185.788 180.029 185.788 177.967V153.098C185.769 152.065 185.956 151.039 186.339 150.08C186.721 149.12 187.291 148.247 188.015 147.51C188.738 146.773 189.602 146.188 190.554 145.788C191.507 145.389 192.529 145.183 193.562 145.183H251.354V185.741Z" fill="#818A97"/>
<path d="M199.838 170.286H206.863C208.105 170.286 209.296 169.792 210.174 168.914C211.052 168.036 211.545 166.845 211.545 165.603C211.545 164.361 211.052 163.17 210.174 162.291C209.296 161.413 208.105 160.92 206.863 160.919H199.838C198.596 160.92 197.405 161.413 196.527 162.291C195.649 163.17 195.156 164.361 195.156 165.603C195.156 166.845 195.649 168.036 196.527 168.914C197.405 169.792 198.596 170.286 199.838 170.286ZM137.362 210.75H131.133C129.891 210.75 128.701 211.244 127.822 212.122C126.944 213 126.451 214.191 126.451 215.433C126.451 216.675 126.944 217.866 127.822 218.745C128.701 219.623 129.891 220.116 131.133 220.117H137.362C138.604 220.116 139.795 219.623 140.673 218.745C141.551 217.866 142.044 216.675 142.044 215.433C142.044 214.191 141.551 213 140.673 212.122C139.795 211.244 138.604 210.75 137.362 210.75ZM66.5502 217.494L67.0653 218.946C67.3926 219.851 67.9908 220.633 68.7785 221.186C69.5662 221.739 70.5052 222.036 71.4677 222.037C72.0107 222.036 72.5495 221.941 73.06 221.756C74.2272 221.333 75.1789 220.464 75.7058 219.34C76.2327 218.216 76.2918 216.929 75.87 215.761L75.2143 213.888C77.0906 212.626 78.6075 210.9 79.6167 208.877C80.9765 205.93 81.1278 202.567 80.0382 199.51C79.474 197.954 78.6075 196.524 77.4887 195.304C76.3698 194.084 75.0206 193.097 73.5188 192.401C72.017 191.704 70.3922 191.312 68.7381 191.246C67.084 191.18 65.4331 191.442 63.8807 192.017L60.8833 192.953C60.2124 192.995 59.5458 192.821 58.9816 192.455C58.4174 192.09 57.9855 191.553 57.7494 190.923C57.5134 190.294 57.4858 189.605 57.6705 188.959C57.8553 188.313 58.2428 187.743 58.7758 187.333L64.6768 185.179C64.8731 185.774 65.1866 186.323 65.5988 186.794C66.011 187.266 66.5135 187.649 67.0767 187.923C67.6398 188.197 68.2522 188.355 68.8775 188.388C69.5028 188.421 70.1283 188.328 70.7172 188.115C71.306 187.902 71.8462 187.573 72.3057 187.148C72.7652 186.723 73.1347 186.209 73.3925 185.639C73.6502 185.068 73.7909 184.452 73.8062 183.826C73.8214 183.2 73.711 182.577 73.4815 181.994C72.6713 179.686 70.9904 177.787 68.7982 176.702C67.6839 176.179 66.4775 175.881 65.248 175.825C64.0185 175.769 62.79 175.956 61.6327 176.374L60.8833 174.688C60.6871 174.094 60.3736 173.544 59.9614 173.073C59.5492 172.602 59.0466 172.218 58.4835 171.944C57.9203 171.67 57.308 171.512 56.6827 171.479C56.0574 171.446 55.4318 171.539 54.843 171.752C54.2541 171.965 53.714 172.294 53.2545 172.719C52.795 173.145 52.4254 173.658 52.1677 174.228C51.91 174.799 51.7693 175.416 51.754 176.042C51.7387 176.668 51.8491 177.29 52.0787 177.873L52.7812 179.793C50.2835 181.512 48.4985 184.083 47.7607 187.024C47.0228 189.964 47.3827 193.073 48.773 195.768C50.1633 198.462 52.4885 200.557 55.3128 201.66C58.1371 202.763 61.2666 202.797 64.1148 201.758L67.0185 200.681C67.4059 200.539 67.8175 200.475 68.2298 200.492C68.642 200.51 69.0467 200.608 69.4209 200.782C69.795 200.956 70.1311 201.202 70.41 201.506C70.6889 201.81 70.9051 202.166 71.0462 202.554C71.2072 202.932 71.2902 203.338 71.2902 203.748C71.2902 204.159 71.2072 204.565 71.0462 204.943C70.8845 205.314 70.6467 205.648 70.3483 205.922C70.0499 206.196 69.6973 206.405 69.3133 206.535L63.4123 208.689C63.2389 208.066 62.9379 207.484 62.5286 206.983C62.1192 206.481 61.6103 206.07 61.0339 205.775C60.4575 205.48 59.8263 205.308 59.18 205.269C58.5337 205.23 57.8864 205.326 57.279 205.55C56.6716 205.774 56.1172 206.122 55.6509 206.571C55.1847 207.02 54.8166 207.561 54.57 208.16C54.3233 208.759 54.2035 209.402 54.2181 210.049C54.2326 210.697 54.3812 211.334 54.6545 211.921C55.3139 213.715 56.5064 215.264 58.0719 216.361C59.6374 217.458 61.5009 218.049 63.4123 218.056C64.5142 218.06 65.6081 217.87 66.6438 217.494H66.5502Z" fill="#818A97"/>
</svg>
